<?xml version="1.0" encoding="UTF-8" standalone="no" ?>
<!DOCTYPE svg PUBLIC "-//W3C//DTD SVG 1.1//EN" "http://www.w3.org/Graphics/SVG/1.1/DTD/svg11.dtd">
<svg xmlns="http://www.w3.org/2000/svg" xmlns:xlink="http://www.w3.org/1999/xlink" version="1.1" width="500" height="500" viewBox="0 0 500 500" xml:space="preserve">
<desc>Created with Fabric.js 4.6.0</desc>
<defs>
</defs>
<g transform="matrix(7.81 0 0 7.81 250 249.61)" id="j6UbIVrBMCFmXlphg1Eg9"  >
<g style="" vector-effect="non-scaling-stroke"   >
		<g transform="matrix(1 0 0 1 0 0)" id="p99ubiYDAiD1Lqs_at4U8"  >
<path style="stroke: none; stroke-width: 1; stroke-dasharray: none; stroke-linecap: butt; stroke-dashoffset: 0; stroke-linejoin: miter; stroke-miterlimit: 4; fill: rgb(0,0,0); fill-rule: nonzero; opacity: 1;" vector-effect="non-scaling-stroke"  transform=" translate(-32, -32)" d="M 31 50 L 33 50 L 33 33 L 50 33 L 50 31 L 33 31 L 33 14 L 31 14 L 31 31 L 14 31 L 14 33 L 31 33 z" stroke-linecap="round" />
</g>
		<g transform="matrix(1 0 0 1 0 0)" id="XxX0Uu2gf7OnrhdHESrny"  >
<path style="stroke: none; stroke-width: 1; stroke-dasharray: none; stroke-linecap: butt; stroke-dashoffset: 0; stroke-linejoin: miter; stroke-miterlimit: 4; fill: rgb(0,0,0); fill-rule: nonzero; opacity: 1;" vector-effect="non-scaling-stroke"  transform=" translate(-32, -32)" d="M 0 0 L 0 64 L 64 64 L 64 0 L 0 0 z M 62 62 L 2 62 L 2 2 L 62 2 L 62 62 z" stroke-linecap="round" />
</g>
</g>
</g>
</svg>