<?xml version="1.0" encoding="UTF-8" standalone="no" ?>
<!DOCTYPE svg PUBLIC "-//W3C//DTD SVG 1.1//EN" "http://www.w3.org/Graphics/SVG/1.1/DTD/svg11.dtd">
<svg xmlns="http://www.w3.org/2000/svg" xmlns:xlink="http://www.w3.org/1999/xlink" version="1.1" width="500" height="500" viewBox="0 0 500 500" xml:space="preserve">
<desc>Created with Fabric.js 4.6.0</desc>
<defs>
</defs>
<g transform="matrix(0.5 0 0 0.5 250.4 250.66)" id="wYlP6oTfAfs_0MDNqWu3Z"  >
<g style="" vector-effect="non-scaling-stroke"   >
		<g transform="matrix(0.1 0 0 -0.1 0 0)" id="xHhmDanB_aZPRP3nmgEJu"  >
<path style="stroke: none; stroke-width: 1; stroke-dasharray: none; stroke-linecap: butt; stroke-dashoffset: 0; stroke-linejoin: miter; stroke-miterlimit: 4; fill: rgb(0,0,0); fill-rule: nonzero; opacity: 1;" vector-effect="non-scaling-stroke"  transform=" translate(-5000.01, -109.98)" d="M 1517.4 4981.7 C 892.7 4865.4 411.4 4449 184.3 3827.1 L 111.30000000000001 3629.7 L 103.20000000000002 203.69999999999982 C 95.10000000000002 -3633.3 87.00000000000001 -3430.5 289.8 -3846.9 C 511.5 -4293.1 971.2 -4650 1463.3 -4752.7 C 1622.8 -4785.2 2166.3 -4793.3 5000.1 -4793.3 C 7990.8 -4793.3 8369.3 -4787.900000000001 8542.400000000001 -4750 C 9064.300000000001 -4631 9475.300000000001 -4312 9713.2 -3838.8 C 9913.300000000001 -3446.7000000000003 9899.800000000001 -3709 9899.800000000001 101 C 9899.800000000001 3883.9 9910.6 3640.5 9718.6 4048.8 C 9572.6 4357.1 9264.300000000001 4668 8966.9 4816.7 C 8547.8 5022.2 8853.3 5006 5086.599999999999 5011.4 C 2390.8 5016.8 1668.8 5011.4 1517.4 4981.7 z M 8647.9 4327.3 C 8902.1 4208.3 9080.5 4032.6000000000004 9204.9 3781.1000000000004 L 9304.9 3578.3 L 9313 171.20000000000027 C 9321.1 -3552.2 9326.5 -3373.7999999999997 9167 -3646.7999999999997 C 9083.2 -3790.1 8845.2 -4014.6 8699.2 -4090.2999999999997 C 8431.5 -4225.5 8453.1 -4225.5 5019.000000000001 -4225.5 C 3088.300000000001 -4225.5 1752.6000000000008 -4214.7 1655.2000000000007 -4198.5 C 1168.5000000000007 -4120.1 784.5000000000007 -3744.3 692.6000000000007 -3254.8 C 676.4000000000007 -3160.2000000000003 665.6000000000007 -1967.7000000000003 665.6000000000007 111.69999999999982 C 665.6000000000007 3562 665.6000000000007 3540.3999999999996 800.8000000000006 3805.3999999999996 C 873.8000000000006 3948.7 1076.6000000000006 4170.4 1219.9000000000005 4259.7 C 1279.4000000000005 4297.599999999999 1395.7000000000005 4351.599999999999 1476.8000000000006 4376 C 1617.4000000000005 4422 1833.7000000000007 4424.7 5046.1 4419.3 L 8466.7 4413.900000000001 L 8647.9 4327.3 z" stroke-linecap="round" />
</g>
		<g transform="matrix(0.1 0 0 -0.1 -0.8 0.9)" id="m1iZB3NTULl_N4Q-gN30-"  >
<path style="stroke: none; stroke-width: 1; stroke-dasharray: none; stroke-linecap: butt; stroke-dashoffset: 0; stroke-linejoin: miter; stroke-miterlimit: 4; fill: rgb(0,0,0); fill-rule: nonzero; opacity: 1;" vector-effect="non-scaling-stroke"  transform=" translate(-4992, -101)" d="M 4721.6 1547.6 L 4721.6 398.4 L 3558.9 398.4 L 2396.2 398.4 L 2396.2 114.5 L 2396.2 -169.39999999999998 L 3553.5 -174.79999999999998 L 4708.1 -182.89999999999998 L 4716.200000000001 -1337.5 L 4721.6 -2494.8 L 5005.5 -2494.8 L 5289.4 -2494.8 L 5289.4 -1332.1000000000001 L 5289.4 -169.4000000000001 L 6438.599999999999 -169.4000000000001 L 7587.799999999999 -169.4000000000001 L 7587.799999999999 114.49999999999989 L 7587.799999999999 398.39999999999986 L 6438.7 398.39999999999986 L 5289.5 398.39999999999986 L 5289.5 1547.6 L 5289.5 2696.8 L 5005.6 2696.8 L 4721.700000000001 2696.8 L 4721.700000000001 1547.6 z" stroke-linecap="round" />
</g>
</g>
</g>
</svg>